<svg width="60" height="60" viewBox="0 0 60 60" fill="none" xmlns="http://www.w3.org/2000/svg">
<path d="M43.4438 16.7094L42.9045 13.5507L47.9892 8.466C45.2157 7.23333 41.8259 7.69556 39.4376 10.0839C37.3575 12.164 36.6641 15.1686 37.5116 17.711L17.7118 37.5107C15.0924 36.7403 12.1649 37.3566 10.0848 39.4367C7.7735 41.748 7.23421 45.2149 8.46688 47.9884L13.5516 42.9036L16.7103 43.4429L17.2496 46.6016L12.2419 51.6093C14.9384 52.7649 18.2512 52.2256 20.5624 49.9144C22.6425 47.8342 23.3359 44.8297 22.4884 42.2873L42.2882 22.4876C44.9076 23.258 47.8351 22.6416 49.9153 20.5615C52.1495 18.3273 52.7658 14.9375 51.6102 12.241L46.6025 17.2487L43.4438 16.7094Z" stroke="#060F42" stroke-width="2.3" stroke-miterlimit="10"/>
<path d="M15.7849 11.7025L15.4768 15.4005L11.7017 15.7857L7.92667 10.4698L10.469 7.92745L15.7849 11.7025Z" fill="#01579B" stroke="#01579B" stroke-width="2.3" stroke-miterlimit="10"/>
<path d="M15.4772 15.3997L29.884 30.2688" stroke="#01579B" stroke-width="2.3" stroke-miterlimit="10"/>
<path d="M31.4637 28.382L28.1509 31.6948C27.7893 32.0564 27.7893 32.6428 28.1509 33.0045C28.5126 33.3661 29.099 33.3661 29.4606 33.0045L32.7734 29.6917C33.1351 29.33 33.1351 28.7436 32.7734 28.382C32.4118 28.0203 31.8254 28.0203 31.4637 28.382Z" fill="#FFCD1B"/>
<path d="M34.4023 30.5273L30.297 34.6327C29.516 35.4137 29.516 36.68 30.297 37.4611L43.8785 51.0425C44.6595 51.8236 45.9258 51.8236 46.7069 51.0425L50.8122 46.9372C51.5933 46.1561 51.5933 44.8898 50.8122 44.1088L37.2308 30.5273C36.4497 29.7463 35.1834 29.7463 34.4023 30.5273Z" fill="#FFCD1B"/>
<path d="M33.5704 28.2812L28.0509 33.8007C27.6603 34.1912 27.6603 34.8244 28.0509 35.2149L28.1775 35.3415C28.568 35.7321 29.2012 35.7321 29.5917 35.3415L35.1112 29.822C35.5017 29.4315 35.5017 28.7983 35.1112 28.4078L34.9846 28.2812C34.5941 27.8906 33.9609 27.8906 33.5704 28.2812Z" fill="#060F42"/>
<path d="M32.4258 34.9688L46.6014 49.1444" stroke="#060F42" stroke-width="2.3" stroke-miterlimit="10"/>
<path d="M34.7383 32.6582L48.9139 46.8339" stroke="#060F42" stroke-width="2.3" stroke-miterlimit="10"/>
</svg>
