<svg width="25" height="24" viewBox="0 0 25 24" fill="none" xmlns="http://www.w3.org/2000/svg">
<path fill-rule="evenodd" clip-rule="evenodd" d="M20.4982 12.1788C20.4982 11.6344 20.4529 11.09 20.3622 10.5566H12.6641V13.6343H17.0743C16.8929 14.6232 16.3034 15.512 15.4417 16.0676V18.0675H18.072C19.6139 16.6787 20.4982 14.6232 20.4982 12.1788Z" fill="white"/>
<path fill-rule="evenodd" clip-rule="evenodd" d="M12.665 19.9997C14.8644 19.9997 16.7238 19.2886 18.0729 18.0664L15.4427 16.0665C14.7057 16.5553 13.7647 16.8331 12.665 16.8331C10.5335 16.8331 8.73089 15.422 8.08465 13.5332H5.375V15.5998C6.75817 18.2997 9.5812 19.9997 12.665 19.9997Z" fill="white"/>
<path fill-rule="evenodd" clip-rule="evenodd" d="M8.08547 13.5342C7.74535 12.5453 7.74535 11.4676 8.08547 10.4676V8.41211H5.37582C4.20806 10.6676 4.20806 13.3342 5.37582 15.5897L8.08547 13.5342Z" fill="white"/>
<path fill-rule="evenodd" clip-rule="evenodd" d="M12.665 7.16705C13.8327 7.14483 14.9551 7.57815 15.7941 8.36702L18.1296 6.0782C16.6444 4.72268 14.6944 3.97826 12.665 4.00048C9.58119 4.00048 6.75817 5.71154 5.375 8.41146L8.08465 10.4781C8.73089 8.57812 10.5335 7.16705 12.665 7.16705Z" fill="white"/>
</svg>
