<svg width="190" height="24" viewBox="0 0 190 24" fill="none" xmlns="http://www.w3.org/2000/svg">
<path d="M5.62502 20.0995C5.11668 20.0321 5.76669 16.8989 5.76669 16.8989H4.66668C3.73334 16.8989 3 16.1576 3 15.2142V5.58511C3 4.64167 3.73334 3.90039 4.66668 3.90039H19.3335C20.2668 3.90039 21.0002 4.64167 21.0002 5.58511V15.2142C21.0002 16.1576 20.2668 16.8989 19.3335 16.8989H10.4334C10.4334 16.8989 6.13337 20.1669 5.62502 20.0995ZM4.66668 4.57428C4.10001 4.57428 3.66667 5.0123 3.66667 5.58511V15.2142C3.66667 15.787 4.10001 16.225 4.66668 16.225H6.6667L6.37503 18.5166L10.2001 16.225H19.3335C19.9002 16.225 20.3335 15.787 20.3335 15.2142V5.58511C20.3335 5.0123 19.9002 4.57428 19.3335 4.57428H4.66668Z" fill="#01579B" stroke="#01579B" stroke-width="0.5"/>
<path d="M8.40001 11.1008C8.89707 11.1008 9.30002 10.6979 9.30002 10.2008C9.30002 9.70373 8.89707 9.30078 8.40001 9.30078C7.90295 9.30078 7.5 9.70373 7.5 10.2008C7.5 10.6979 7.90295 11.1008 8.40001 11.1008Z" fill="#01579B"/>
<path d="M11.9996 11.1008C12.4967 11.1008 12.8996 10.6979 12.8996 10.2008C12.8996 9.70373 12.4967 9.30078 11.9996 9.30078C11.5026 9.30078 11.0996 9.70373 11.0996 10.2008C11.0996 10.6979 11.5026 11.1008 11.9996 11.1008Z" fill="#01579B"/>
<path d="M15.5992 11.1008C16.0963 11.1008 16.4992 10.6979 16.4992 10.2008C16.4992 9.70373 16.0963 9.30078 15.5992 9.30078C15.1022 9.30078 14.6992 9.70373 14.6992 10.2008C14.6992 10.6979 15.1022 11.1008 15.5992 11.1008Z" fill="#01579B"/>
<path d="M38.549 10.988C38.549 11.7393 38.43 12.43 38.192 13.06C37.954 13.6853 37.618 14.2243 37.184 14.677C36.75 15.1297 36.2273 15.482 35.616 15.734C35.0093 15.9813 34.3373 16.105 33.6 16.105C32.8627 16.105 32.1907 15.9813 31.584 15.734C30.9773 15.482 30.457 15.1297 30.023 14.677C29.589 14.2243 29.253 13.6853 29.015 13.06C28.777 12.43 28.658 11.7393 28.658 10.988C28.658 10.2367 28.777 9.54833 29.015 8.923C29.253 8.293 29.589 7.75167 30.023 7.299C30.457 6.84167 30.9773 6.487 31.584 6.235C32.1907 5.983 32.8627 5.857 33.6 5.857C34.3373 5.857 35.0093 5.983 35.616 6.235C36.2273 6.487 36.75 6.84167 37.184 7.299C37.618 7.75167 37.954 8.293 38.192 8.923C38.43 9.54833 38.549 10.2367 38.549 10.988ZM37.156 10.988C37.156 10.372 37.072 9.819 36.904 9.329C36.736 8.839 36.498 8.426 36.19 8.09C35.882 7.74933 35.5087 7.488 35.07 7.306C34.6313 7.124 34.1413 7.033 33.6 7.033C33.0633 7.033 32.5757 7.124 32.137 7.306C31.6983 7.488 31.3227 7.74933 31.01 8.09C30.702 8.426 30.464 8.839 30.296 9.329C30.128 9.819 30.044 10.372 30.044 10.988C30.044 11.604 30.128 12.157 30.296 12.647C30.464 13.1323 30.702 13.5453 31.01 13.886C31.3227 14.222 31.6983 14.481 32.137 14.663C32.5757 14.8403 33.0633 14.929 33.6 14.929C34.1413 14.929 34.6313 14.8403 35.07 14.663C35.5087 14.481 35.882 14.222 36.19 13.886C36.498 13.5453 36.736 13.1323 36.904 12.647C37.072 12.157 37.156 11.604 37.156 10.988ZM46.0919 9.861H43.3689V16H42.1229V9.861H39.3999V8.909H46.0919V9.861ZM50.003 15.125C50.4696 15.125 50.8383 15.0177 51.109 14.803C51.3796 14.5837 51.515 14.285 51.515 13.907C51.515 13.739 51.4893 13.5873 51.438 13.452C51.3866 13.312 51.3026 13.1907 51.186 13.088C51.0693 12.9853 50.913 12.906 50.717 12.85C50.5256 12.794 50.29 12.766 50.01 12.766H48.477V15.125H50.003ZM48.477 9.749V11.975H49.842C50.0473 11.975 50.2363 11.947 50.409 11.891C50.5863 11.8303 50.738 11.7487 50.864 11.646C50.99 11.5387 51.088 11.4127 51.158 11.268C51.228 11.1187 51.263 10.9553 51.263 10.778C51.263 10.6473 51.2396 10.5213 51.193 10.4C51.1463 10.274 51.067 10.1643 50.955 10.071C50.843 9.973 50.696 9.896 50.514 9.84C50.332 9.77933 50.108 9.749 49.842 9.749H48.477ZM49.877 8.909C50.3156 8.909 50.6913 8.95333 51.004 9.042C51.3166 9.13067 51.5733 9.252 51.774 9.406C51.9746 9.55533 52.1216 9.73267 52.215 9.938C52.3083 10.1433 52.355 10.3627 52.355 10.596C52.355 10.75 52.334 10.911 52.292 11.079C52.25 11.247 52.1753 11.408 52.068 11.562C51.9653 11.716 51.823 11.856 51.641 11.982C51.4636 12.1033 51.2396 12.199 50.969 12.269C51.5103 12.3623 51.928 12.5513 52.222 12.836C52.516 13.116 52.663 13.487 52.663 13.949C52.663 14.2943 52.593 14.5953 52.453 14.852C52.3176 15.104 52.1286 15.3163 51.886 15.489C51.648 15.6617 51.368 15.79 51.046 15.874C50.724 15.958 50.3786 16 50.01 16H47.28V8.909H49.877ZM58.9713 11.681C58.9713 11.3917 58.9293 11.128 58.8453 10.89C58.7659 10.6473 58.6469 10.4397 58.4883 10.267C58.3343 10.0897 58.1453 9.95433 57.9213 9.861C57.6973 9.763 57.4429 9.714 57.1583 9.714C56.5609 9.714 56.0873 9.889 55.7373 10.239C55.3919 10.5843 55.1773 11.065 55.0933 11.681H58.9713ZM59.9793 15.006C59.8253 15.1927 59.6409 15.356 59.4263 15.496C59.2116 15.6313 58.9806 15.7433 58.7333 15.832C58.4906 15.9207 58.2386 15.986 57.9773 16.028C57.7159 16.0747 57.4569 16.098 57.2003 16.098C56.7103 16.098 56.2576 16.0163 55.8423 15.853C55.4316 15.685 55.0746 15.4423 54.7713 15.125C54.4726 14.803 54.2393 14.4063 54.0713 13.935C53.9033 13.4637 53.8193 12.9223 53.8193 12.311C53.8193 11.8163 53.8939 11.3543 54.0433 10.925C54.1973 10.4957 54.4166 10.1247 54.7013 9.812C54.9859 9.49467 55.3336 9.24733 55.7443 9.07C56.1549 8.888 56.6169 8.797 57.1303 8.797C57.5549 8.797 57.9469 8.86933 58.3063 9.014C58.6703 9.154 58.9829 9.35933 59.2443 9.63C59.5103 9.896 59.7179 10.2273 59.8673 10.624C60.0166 11.016 60.0913 11.464 60.0913 11.968C60.0913 12.164 60.0703 12.2947 60.0283 12.36C59.9863 12.4253 59.9069 12.458 59.7903 12.458H55.0513C55.0653 12.906 55.1259 13.2957 55.2333 13.627C55.3453 13.9583 55.4993 14.236 55.6953 14.46C55.8913 14.6793 56.1246 14.845 56.3953 14.957C56.6659 15.0643 56.9693 15.118 57.3053 15.118C57.6179 15.118 57.8863 15.083 58.1103 15.013C58.3389 14.9383 58.5349 14.859 58.6983 14.775C58.8616 14.691 58.9969 14.614 59.1043 14.544C59.2163 14.4693 59.3119 14.432 59.3913 14.432C59.4939 14.432 59.5733 14.4717 59.6293 14.551L59.9793 15.006ZM67.4064 9.861H64.6834V16H63.4374V9.861H60.7144V8.909H67.4064V9.861ZM74.6774 8.909V16H73.4314V11.184C73.4314 11.0907 73.4361 10.9903 73.4454 10.883C73.4548 10.7757 73.4664 10.6683 73.4804 10.561C73.4384 10.6543 73.3964 10.7407 73.3544 10.82C73.3124 10.8993 73.2681 10.9717 73.2214 11.037L69.7984 15.692C69.7471 15.7667 69.6818 15.839 69.6024 15.909C69.5278 15.9743 69.4438 16.007 69.3504 16.007H68.5944V8.916H69.8474V13.732C69.8474 13.8207 69.8428 13.9187 69.8334 14.026C69.8241 14.1287 69.8124 14.2337 69.7984 14.341C69.8404 14.2523 69.8824 14.1707 69.9244 14.096C69.9664 14.0167 70.0084 13.9443 70.0504 13.879L73.4734 9.224C73.5248 9.14933 73.5901 9.07933 73.6694 9.014C73.7488 8.944 73.8351 8.909 73.9284 8.909H74.6774ZM82.5412 9.861H79.8182V16H78.5722V9.861H75.8492V8.909H82.5412V9.861ZM86.4522 15.09C86.7042 15.09 86.9212 15.0597 87.1032 14.999C87.2899 14.9337 87.4439 14.845 87.5652 14.733C87.6865 14.6163 87.7775 14.481 87.8382 14.327C87.8989 14.173 87.9292 14.005 87.9292 13.823C87.9292 13.655 87.9035 13.4987 87.8522 13.354C87.8009 13.2047 87.7145 13.074 87.5932 12.962C87.4765 12.85 87.3225 12.7613 87.1312 12.696C86.9399 12.6307 86.7065 12.598 86.4312 12.598H84.9262V15.09H86.4522ZM86.4312 11.688C86.9212 11.688 87.3319 11.7463 87.6632 11.863C87.9992 11.9797 88.2675 12.136 88.4682 12.332C88.6735 12.528 88.8205 12.7543 88.9092 13.011C88.9979 13.2677 89.0422 13.5337 89.0422 13.809C89.0422 14.1263 88.9862 14.4203 88.8742 14.691C88.7622 14.957 88.5965 15.188 88.3772 15.384C88.1579 15.5753 87.8872 15.727 87.5652 15.839C87.2432 15.9463 86.8722 16 86.4522 16H83.7292V8.909H84.9262V11.688H86.4312Z" fill="#01579B"/>
<path d="M121.126 15.048V16H115.75V15.048H117.899V8.209C117.899 8.00367 117.906 7.796 117.92 7.586L116.135 9.119C116.074 9.17033 116.014 9.203 115.953 9.217C115.892 9.22633 115.836 9.22633 115.785 9.217C115.734 9.20767 115.685 9.189 115.638 9.161C115.596 9.133 115.563 9.10267 115.54 9.07L115.148 8.531L118.137 5.948H119.152V15.048H121.126ZM129.679 8.797C130.197 8.797 130.664 8.88333 131.079 9.056C131.494 9.22867 131.849 9.47367 132.143 9.791C132.437 10.1083 132.661 10.4933 132.815 10.946C132.974 11.394 133.053 11.8957 133.053 12.451C133.053 13.011 132.974 13.515 132.815 13.963C132.661 14.411 132.437 14.7937 132.143 15.111C131.849 15.4283 131.494 15.6733 131.079 15.846C130.664 16.014 130.197 16.098 129.679 16.098C129.156 16.098 128.685 16.014 128.265 15.846C127.85 15.6733 127.495 15.4283 127.201 15.111C126.907 14.7937 126.681 14.411 126.522 13.963C126.368 13.515 126.291 13.011 126.291 12.451C126.291 11.8957 126.368 11.394 126.522 10.946C126.681 10.4933 126.907 10.1083 127.201 9.791C127.495 9.47367 127.85 9.22867 128.265 9.056C128.685 8.88333 129.156 8.797 129.679 8.797ZM129.679 15.125C130.379 15.125 130.902 14.8917 131.247 14.425C131.592 13.9537 131.765 13.298 131.765 12.458C131.765 11.6133 131.592 10.9553 131.247 10.484C130.902 10.0127 130.379 9.777 129.679 9.777C129.324 9.777 129.014 9.83767 128.748 9.959C128.487 10.0803 128.267 10.2553 128.09 10.484C127.917 10.7127 127.787 10.995 127.698 11.331C127.614 11.6623 127.572 12.038 127.572 12.458C127.572 13.298 127.745 13.9537 128.09 14.425C128.44 14.8917 128.97 15.125 129.679 15.125ZM140.24 9.861H137.517V16H136.271V9.861H133.548V8.909H140.24V9.861ZM144.151 15.125C144.618 15.125 144.987 15.0177 145.257 14.803C145.528 14.5837 145.663 14.285 145.663 13.907C145.663 13.739 145.638 13.5873 145.586 13.452C145.535 13.312 145.451 13.1907 145.334 13.088C145.218 12.9853 145.061 12.906 144.865 12.85C144.674 12.794 144.438 12.766 144.158 12.766H142.625V15.125H144.151ZM142.625 9.749V11.975H143.99C144.196 11.975 144.385 11.947 144.557 11.891C144.735 11.8303 144.886 11.7487 145.012 11.646C145.138 11.5387 145.236 11.4127 145.306 11.268C145.376 11.1187 145.411 10.9553 145.411 10.778C145.411 10.6473 145.388 10.5213 145.341 10.4C145.295 10.274 145.215 10.1643 145.103 10.071C144.991 9.973 144.844 9.896 144.662 9.84C144.48 9.77933 144.256 9.749 143.99 9.749H142.625ZM144.025 8.909C144.464 8.909 144.84 8.95333 145.152 9.042C145.465 9.13067 145.722 9.252 145.922 9.406C146.123 9.55533 146.27 9.73267 146.363 9.938C146.457 10.1433 146.503 10.3627 146.503 10.596C146.503 10.75 146.482 10.911 146.44 11.079C146.398 11.247 146.324 11.408 146.216 11.562C146.114 11.716 145.971 11.856 145.789 11.982C145.612 12.1033 145.388 12.199 145.117 12.269C145.659 12.3623 146.076 12.5513 146.37 12.836C146.664 13.116 146.811 13.487 146.811 13.949C146.811 14.2943 146.741 14.5953 146.601 14.852C146.466 15.104 146.277 15.3163 146.034 15.489C145.796 15.6617 145.516 15.79 145.194 15.874C144.872 15.958 144.527 16 144.158 16H141.428V8.909H144.025ZM153.12 11.681C153.12 11.3917 153.078 11.128 152.994 10.89C152.914 10.6473 152.795 10.4397 152.637 10.267C152.483 10.0897 152.294 9.95433 152.07 9.861C151.846 9.763 151.591 9.714 151.307 9.714C150.709 9.714 150.236 9.889 149.886 10.239C149.54 10.5843 149.326 11.065 149.242 11.681H153.12ZM154.128 15.006C153.974 15.1927 153.789 15.356 153.575 15.496C153.36 15.6313 153.129 15.7433 152.882 15.832C152.639 15.9207 152.387 15.986 152.126 16.028C151.864 16.0747 151.605 16.098 151.349 16.098C150.859 16.098 150.406 16.0163 149.991 15.853C149.58 15.685 149.223 15.4423 148.92 15.125C148.621 14.803 148.388 14.4063 148.22 13.935C148.052 13.4637 147.968 12.9223 147.968 12.311C147.968 11.8163 148.042 11.3543 148.192 10.925C148.346 10.4957 148.565 10.1247 148.85 9.812C149.134 9.49467 149.482 9.24733 149.893 9.07C150.303 8.888 150.765 8.797 151.279 8.797C151.703 8.797 152.095 8.86933 152.455 9.014C152.819 9.154 153.131 9.35933 153.393 9.63C153.659 9.896 153.866 10.2273 154.016 10.624C154.165 11.016 154.24 11.464 154.24 11.968C154.24 12.164 154.219 12.2947 154.177 12.36C154.135 12.4253 154.055 12.458 153.939 12.458H149.2C149.214 12.906 149.274 13.2957 149.382 13.627C149.494 13.9583 149.648 14.236 149.844 14.46C150.04 14.6793 150.273 14.845 150.544 14.957C150.814 15.0643 151.118 15.118 151.454 15.118C151.766 15.118 152.035 15.083 152.259 15.013C152.487 14.9383 152.683 14.859 152.847 14.775C153.01 14.691 153.145 14.614 153.253 14.544C153.365 14.4693 153.46 14.432 153.54 14.432C153.642 14.432 153.722 14.4717 153.778 14.551L154.128 15.006ZM161.555 9.861H158.832V16H157.586V9.861H154.863V8.909H161.555V9.861Z" fill="#01579B"/>
<path d="M174 10L178 14L182 10" stroke="#01579B" stroke-width="1.5" stroke-linecap="round" stroke-linejoin="round"/>
</svg>
